<svg width="69" height="20" viewBox="0 0 69 20" fill="none" xmlns="http://www.w3.org/2000/svg">
<path d="M6.09226 0.268799C7.09201 0.268799 7.97461 0.474332 8.74005 0.885399C9.52111 1.28066 10.1303 1.77868 10.5677 2.37947V0.482238H13.2624V13.7629C13.2624 14.9645 13.0124 16.0316 12.5126 16.9645C12.0127 17.9131 11.2863 18.6561 10.3334 19.1937C9.39614 19.7312 8.27141 20 6.95923 20C5.20966 20 3.75689 19.5811 2.60093 18.7431C1.89547 18.2414 1.37618 17.6278 1.04307 16.9023C0.689485 16.1322 1.37304 15.3755 2.2204 15.3755C2.84942 15.3755 3.37444 15.8184 3.76711 16.3098C3.97995 16.5762 4.24731 16.8102 4.56919 17.0119C5.2409 17.4388 6.03758 17.6522 6.95923 17.6522C8.03709 17.6522 8.90407 17.3202 9.56016 16.6562C10.2319 15.9921 10.5677 15.0277 10.5677 13.7629V11.5811C10.1147 12.1977 9.49767 12.7194 8.71662 13.1463C7.95118 13.5573 7.07639 13.7629 6.09226 13.7629C4.96753 13.7629 3.93654 13.4783 2.99927 12.9091C2.07762 12.3241 1.34342 11.5178 0.79668 10.4901C0.26556 9.44666 0 8.2688 0 6.95654C0 5.64429 0.26556 4.48224 0.79668 3.47038C1.34342 2.45852 2.07762 1.67591 2.99927 1.12255C3.93654 0.553384 4.96753 0.268799 6.09226 0.268799ZM10.5677 7.00398C10.5677 6.10279 10.3803 5.32018 10.0054 4.65615C9.64607 3.99212 9.16963 3.48619 8.57603 3.13836C7.98242 2.79054 7.34195 2.61662 6.65462 2.61662C5.96729 2.61662 5.32682 2.79054 4.73322 3.13836C4.13961 3.47038 3.65535 3.9684 3.28045 4.63243C2.92116 5.28066 2.74152 6.05536 2.74152 6.95654C2.74152 7.85773 2.92116 8.64824 3.28045 9.32809C3.65535 10.0079 4.13961 10.5297 4.73322 10.8933C5.34244 11.2411 5.98291 11.415 6.65462 11.415C7.34195 11.415 7.98242 11.2411 8.57603 10.8933C9.16963 10.5455 9.64607 10.0396 10.0054 9.37552C10.3803 8.69568 10.5677 7.90516 10.5677 7.00398Z" fill="#101828"/>
<path d="M15.8805 6.95654C15.8805 5.64429 16.1461 4.48224 16.6772 3.47038C17.2239 2.45852 17.9581 1.67591 18.8798 1.12255C19.817 0.553384 20.848 0.268799 21.9728 0.268799C22.9881 0.268799 23.8707 0.474332 24.6206 0.885399C25.386 1.28066 25.9952 1.77868 26.4482 2.37947V0.482238H29.1429V13.5494H26.4482V11.6048C25.9952 12.2214 25.3782 12.7352 24.5971 13.1463C23.8161 13.5573 22.9257 13.7629 21.9259 13.7629C20.8168 13.7629 19.8014 13.4783 18.8798 12.9091C17.9581 12.3241 17.2239 11.5178 16.6772 10.4901C16.1461 9.44666 15.8805 8.2688 15.8805 6.95654ZM26.4482 7.00398C26.4482 6.10279 26.2608 5.32018 25.8859 4.65615C25.5266 3.99212 25.0501 3.48619 24.4565 3.13836C23.8629 2.79054 23.2225 2.61662 22.5351 2.61662C21.8478 2.61662 21.2073 2.79054 20.6137 3.13836C20.0201 3.47038 19.5359 3.9684 19.161 4.63243C18.8017 5.28066 18.622 6.05536 18.622 6.95654C18.622 7.85773 18.8017 8.64824 19.161 9.32809C19.5359 10.0079 20.0201 10.5297 20.6137 10.8933C21.223 11.2411 21.8634 11.415 22.5351 11.415C23.2225 11.415 23.8629 11.2411 24.4565 10.8933C25.0501 10.5455 25.5266 10.0396 25.8859 9.37552C26.2608 8.69568 26.4482 7.90516 26.4482 7.00398Z" fill="#101828"/>
<path d="M48.2804 0.268799C49.2958 0.268799 50.2018 0.482237 50.9985 0.909114C51.8108 1.33599 52.4435 1.9684 52.8965 2.80635C53.3651 3.64429 53.5994 4.65615 53.5994 5.84192V13.5494H50.9516V6.24508C50.9516 5.07512 50.6626 4.18184 50.0847 3.56524C49.5067 2.93283 48.7178 2.61662 47.7181 2.61662C46.7183 2.61662 45.9216 2.93283 45.328 3.56524C44.75 4.18184 44.461 5.07512 44.461 6.24508V13.5494H41.8132V6.24508C41.8132 5.07512 41.5243 4.18184 40.9463 3.56524C40.3683 2.93283 39.5794 2.61662 38.5797 2.61662C37.5799 2.61662 36.7832 2.93283 36.1896 3.56524C35.6116 4.18184 35.3226 5.07512 35.3226 6.24508V13.5494H32.6514V0.482238H35.3226V1.97631C35.76 1.43876 36.3146 1.01979 36.9863 0.719391C37.658 0.418996 38.3766 0.268799 39.142 0.268799C40.173 0.268799 41.0947 0.490143 41.907 0.93283C42.7193 1.37552 43.3441 2.01583 43.7815 2.85378C44.172 2.06326 44.7813 1.43876 45.6092 0.98026C46.4371 0.505953 47.3275 0.268799 48.2804 0.268799Z" fill="#101828"/>
<path d="M68.8315 6.69568C68.8315 7.1858 68.8003 7.62848 68.7378 8.02374H58.873C58.9511 9.06722 59.3339 9.90516 60.0212 10.5376C60.7085 11.17 61.5521 11.4862 62.5518 11.4862C63.989 11.4862 65.0043 10.8775 65.5979 9.6601H68.48C68.0895 10.8617 67.3788 11.8498 66.3478 12.6245C65.3324 13.3834 64.0671 13.7629 62.5518 13.7629C61.3177 13.7629 60.2086 13.4862 59.2245 12.9328C58.256 12.3637 57.4906 11.5731 56.9282 10.5613C56.3815 9.53362 56.1081 8.34785 56.1081 7.00398C56.1081 5.6601 56.3736 4.48224 56.9048 3.47038C57.4515 2.44271 58.2091 1.6522 59.1776 1.09884C60.1618 0.545478 61.2865 0.268799 62.5518 0.268799C63.7703 0.268799 64.8559 0.537573 65.8088 1.07512C66.7617 1.61267 67.5037 2.37157 68.0349 3.3518C68.566 4.31623 68.8315 5.43085 68.8315 6.69568ZM66.0432 5.84192C66.0275 4.84587 65.6761 4.04745 64.9887 3.44666C64.3014 2.84587 63.45 2.54548 62.4347 2.54548C61.513 2.54548 60.7241 2.84587 60.0681 3.44666C59.412 4.03164 59.0214 4.83006 58.8965 5.84192H66.0432Z" fill="#101828"/>
</svg>
