<svg width="82" height="18" viewBox="0 0 82 18" fill="none" xmlns="http://www.w3.org/2000/svg">
<path d="M6.45123 15.1304L11.7372 1.36795C11.9312 0.862946 12.4163 0.529645 12.9572 0.529645C13.8837 0.529645 14.516 1.4669 14.1691 2.32592L8.60973 16.092C8.25404 16.9728 7.39926 17.5494 6.44938 17.5494C5.47802 17.5494 4.60859 16.9468 4.2677 16.0372L0.608287 6.27287C0.283544 5.40637 0.924121 4.48221 1.84948 4.48221C2.41566 4.48221 2.91933 4.84183 3.10316 5.37734L6.45123 15.1304Z" fill="#6941C6"/>
<path d="M26.794 10.6957C26.794 11.1858 26.7628 11.6285 26.7003 12.0237H16.8355C16.9136 13.0672 17.2964 13.9051 17.9837 14.5375C18.671 15.17 19.5146 15.4862 20.5143 15.4862C21.9515 15.4862 22.9668 14.8775 23.5604 13.6601H26.4425C26.052 14.8617 25.3413 15.8498 24.3103 16.6245C23.2949 17.3834 22.0296 17.7628 20.5143 17.7628C19.2802 17.7628 18.1711 17.4862 17.187 16.9328C16.2185 16.3636 15.453 15.5731 14.8907 14.5613C14.3439 13.5336 14.0706 12.3478 14.0706 11.004C14.0706 9.66008 14.3361 8.48221 14.8673 7.47036C15.414 6.44269 16.1716 5.65217 17.1401 5.09881C18.1243 4.54545 19.249 4.26877 20.5143 4.26877C21.7328 4.26877 22.8184 4.53755 23.7713 5.0751C24.7242 5.61265 25.4662 6.37154 25.9974 7.35178C26.5285 8.31621 26.794 9.43083 26.794 10.6957ZM24.0056 9.8419C23.99 8.84585 23.6385 8.04743 22.9512 7.44664C22.2639 6.84585 21.4125 6.54545 20.3972 6.54545C19.4755 6.54545 18.6866 6.84585 18.0305 7.44664C17.3745 8.03162 16.9839 8.83004 16.859 9.8419H24.0056Z" fill="#6941C6"/>
<path d="M35.9368 4.26877C36.9522 4.26877 37.8582 4.48221 38.6549 4.90909C39.4672 5.33597 40.0998 5.96838 40.5529 6.80632C41.0059 7.64427 41.2324 8.65613 41.2324 9.8419V17.5494H38.5846V10.2451C38.5846 9.0751 38.2956 8.18182 37.7176 7.56522C37.1396 6.93281 36.3508 6.6166 35.351 6.6166C34.3513 6.6166 33.5546 6.93281 32.961 7.56522C32.383 8.18182 32.094 9.0751 32.094 10.2451V17.5494H29.4228V4.48221H32.094V5.97628C32.5314 5.43874 33.0859 5.01976 33.7577 4.71937C34.445 4.41897 35.1714 4.26877 35.9368 4.26877Z" fill="#6941C6"/>
<path d="M43.7493 10.9565C43.7493 9.64427 44.0148 8.48221 44.546 7.47036C45.0927 6.4585 45.8269 5.67589 46.7486 5.12253C47.6858 4.55336 48.7246 4.26877 49.865 4.26877C50.7085 4.26877 51.5364 4.4585 52.3487 4.83794C53.1767 5.20158 53.8328 5.6917 54.317 6.3083V0H57.0117V17.5494H54.317V15.581C53.8796 16.2134 53.2704 16.7352 52.4893 17.1462C51.7239 17.5573 50.8413 17.7628 49.8415 17.7628C48.7168 17.7628 47.6858 17.4783 46.7486 16.9091C45.8269 16.3241 45.0927 15.5178 44.546 14.4901C44.0148 13.4466 43.7493 12.2688 43.7493 10.9565ZM54.317 11.004C54.317 10.1028 54.1296 9.32016 53.7546 8.65613C53.3954 7.99209 52.9189 7.48617 52.3253 7.13834C51.7317 6.79051 51.0912 6.6166 50.4039 6.6166C49.7166 6.6166 49.0761 6.79051 48.4825 7.13834C47.8889 7.47036 47.4046 7.96838 47.0297 8.63241C46.6704 9.28063 46.4908 10.0553 46.4908 10.9565C46.4908 11.8577 46.6704 12.6482 47.0297 13.3281C47.4046 14.0079 47.8889 14.5296 48.4825 14.8933C49.0917 15.2411 49.7322 15.415 50.4039 15.415C51.0912 15.415 51.7317 15.2411 52.3253 14.8933C52.9189 14.5455 53.3954 14.0395 53.7546 13.3755C54.1296 12.6957 54.317 11.9051 54.317 11.004Z" fill="#6941C6"/>
<path d="M66.1204 17.7628C64.9019 17.7628 63.8007 17.4862 62.8165 16.9328C61.8324 16.3636 61.0591 15.5731 60.4968 14.5613C59.9344 13.5336 59.6532 12.3478 59.6532 11.004C59.6532 9.67589 59.9422 8.49802 60.5202 7.47036C61.0982 6.44269 61.8871 5.65217 62.8868 5.09881C63.8866 4.54545 65.0035 4.26877 66.2375 4.26877C67.4716 4.26877 68.5885 4.54545 69.5883 5.09881C70.588 5.65217 71.3769 6.44269 71.9549 7.47036C72.5329 8.49802 72.8219 9.67589 72.8219 11.004C72.8219 12.332 72.5251 13.5099 71.9315 14.5375C71.3379 15.5652 70.5256 16.3636 69.4946 16.9328C68.4792 17.4862 67.3545 17.7628 66.1204 17.7628ZM66.1204 15.415C66.8077 15.415 67.4482 15.249 68.0418 14.917C68.651 14.585 69.1431 14.087 69.518 13.4229C69.8929 12.7589 70.0804 11.9526 70.0804 11.004C70.0804 10.0553 69.9007 9.25692 69.5414 8.6087C69.1821 7.94466 68.7057 7.44664 68.1121 7.11462C67.5185 6.78261 66.878 6.6166 66.1907 6.6166C65.5034 6.6166 64.8629 6.78261 64.2693 7.11462C63.6913 7.44664 63.2305 7.94466 62.8868 8.6087C62.5431 9.25692 62.3713 10.0553 62.3713 11.004C62.3713 12.4111 62.7228 13.502 63.4257 14.2767C64.1443 15.0356 65.0425 15.415 66.1204 15.415Z" fill="#6941C6"/>
<path d="M78.1337 6.37945C78.5243 5.71542 79.0398 5.20158 79.6802 4.83794C80.3363 4.4585 81.1096 4.26877 82 4.26877V7.06719H81.3205C80.2738 7.06719 79.4772 7.33597 78.9304 7.87352C78.3993 8.41107 78.1337 9.34387 78.1337 10.6719V17.5494H75.4625V4.48221H78.1337V6.37945Z" fill="#6941C6"/>
</svg>
