<svg width="17" height="18" viewBox="0 0 17 18" fill="none" xmlns="http://www.w3.org/2000/svg">
<path d="M14.7996 17C14.7996 17.4418 15.1578 17.8 15.5996 17.8C16.0414 17.8 16.3996 17.4418 16.3996 17H14.7996ZM12.0996 11.6667V10.8667V11.6667ZM5.09961 11.6667V10.8667V11.6667ZM1.59961 15.2222H0.799609H1.59961ZM0.799609 17C0.799609 17.4418 1.15778 17.8 1.59961 17.8C2.04144 17.8 2.39961 17.4418 2.39961 17H0.799609ZM16.3996 17V15.2222H14.7996V17H16.3996ZM16.3996 15.2222C16.3996 14.0711 15.9496 12.9646 15.1446 12.1469L14.0044 13.2693C14.5121 13.7851 14.7996 14.4874 14.7996 15.2222H16.3996ZM15.1446 12.1469C14.3392 11.3287 13.2441 10.8667 12.0996 10.8667V12.4667C12.8116 12.4667 13.497 12.7539 14.0044 13.2693L15.1446 12.1469ZM12.0996 10.8667H5.09961V12.4667H12.0996V10.8667ZM5.09961 10.8667C3.95508 10.8667 2.86001 11.3287 2.05461 12.1469L3.19486 13.2693C3.70221 12.7539 4.38763 12.4667 5.09961 12.4667V10.8667ZM2.05461 12.1469C1.24963 12.9646 0.799609 14.0711 0.799609 15.2222H2.39961C2.39961 14.4874 2.68708 13.7851 3.19486 13.2693L2.05461 12.1469ZM0.799609 15.2222V17H2.39961V15.2222H0.799609ZM11.2996 4.55556C11.2996 6.08933 10.0789 7.31111 8.59961 7.31111V8.91111C10.9863 8.91111 12.8996 6.94914 12.8996 4.55556H11.2996ZM8.59961 7.31111C7.12027 7.31111 5.89961 6.08933 5.89961 4.55556H4.29961C4.29961 6.94914 6.21295 8.91111 8.59961 8.91111V7.31111ZM5.89961 4.55556C5.89961 3.02178 7.12027 1.8 8.59961 1.8V0.2C6.21295 0.2 4.29961 2.16197 4.29961 4.55556H5.89961ZM8.59961 1.8C10.0789 1.8 11.2996 3.02178 11.2996 4.55556H12.8996C12.8996 2.16197 10.9863 0.2 8.59961 0.2V1.8Z" fill="#101828"/>
</svg>
