<svg width="20" height="18" viewBox="0 0 20 18" fill="none" xmlns="http://www.w3.org/2000/svg">
<path d="M1.19971 0.2C0.757879 0.2 0.399707 0.558172 0.399707 1C0.399707 1.44183 0.757879 1.8 1.19971 1.8V0.2ZM4.47243 1L5.25328 0.825989C5.17176 0.460183 4.84721 0.2 4.47243 0.2V1ZM6.66516 10.8395L7.44951 10.6821C7.4484 10.6765 7.44723 10.671 7.44601 10.6655L6.66516 10.8395ZM8.30153 12.1429V11.3429C8.29647 11.3429 8.29141 11.3429 8.28636 11.343L8.30153 12.1429ZM16.2543 12.1429L16.2694 11.343C16.2644 11.3429 16.2593 11.3429 16.2543 11.3429V12.1429ZM17.8906 10.8395L17.1103 10.6632C17.1089 10.6694 17.1075 10.6757 17.1063 10.6821L17.8906 10.8395ZM19.1997 5.04762L19.98 5.22399C20.0336 4.98681 19.9765 4.73812 19.8246 4.54817C19.6728 4.35821 19.4429 4.24762 19.1997 4.24762V5.04762ZM5.29062 4.24762C4.84879 4.24762 4.49062 4.60579 4.49062 5.04762C4.49062 5.48945 4.84879 5.84762 5.29062 5.84762V4.24762ZM7.76334 16.1905C7.76334 16.192 7.7632 16.1917 7.76344 16.1911C7.76345 16.1911 7.76288 16.1924 7.76103 16.1942C7.75918 16.196 7.75698 16.1975 7.7548 16.1984C7.75312 16.1991 7.75036 16.2 7.74516 16.2V17.8C8.63082 17.8 9.36334 17.0874 9.36334 16.1905H7.76334ZM7.74516 16.2C7.73996 16.2 7.7372 16.1991 7.73553 16.1984C7.73334 16.1975 7.73114 16.196 7.72929 16.1942C7.72744 16.1924 7.72687 16.1911 7.72688 16.1911C7.72713 16.1917 7.72698 16.192 7.72698 16.1905H6.12698C6.12698 17.0874 6.85951 17.8 7.74516 17.8V16.2ZM7.72698 16.1905C7.72698 16.1889 7.72713 16.1893 7.72688 16.1898C7.72687 16.1899 7.72744 16.1886 7.72929 16.1867C7.73114 16.1849 7.73334 16.1835 7.73553 16.1826C7.7372 16.1819 7.73996 16.181 7.74516 16.181V14.581C6.85951 14.581 6.12698 15.2936 6.12698 16.1905H7.72698ZM7.74516 16.181C7.75036 16.181 7.75313 16.1819 7.7548 16.1826C7.75698 16.1835 7.75918 16.1849 7.76104 16.1867C7.76288 16.1886 7.76345 16.1899 7.76344 16.1898C7.7632 16.1893 7.76334 16.1889 7.76334 16.1905H9.36334C9.36334 15.2936 8.63081 14.581 7.74516 14.581V16.181ZM16.7633 16.1905C16.7633 16.192 16.7632 16.1917 16.7634 16.1911C16.7634 16.1911 16.7629 16.1924 16.761 16.1942C16.7592 16.196 16.757 16.1975 16.7548 16.1984C16.7531 16.1991 16.7504 16.2 16.7452 16.2V17.8C17.6308 17.8 18.3633 17.0874 18.3633 16.1905H16.7633ZM16.7452 16.2C16.74 16.2 16.7372 16.1991 16.7355 16.1984C16.7333 16.1975 16.7311 16.196 16.7293 16.1942C16.7274 16.1924 16.7269 16.1911 16.7269 16.1911C16.7271 16.1917 16.727 16.192 16.727 16.1905H15.127C15.127 17.0874 15.8595 17.8 16.7452 17.8V16.2ZM16.727 16.1905C16.727 16.1889 16.7271 16.1893 16.7269 16.1898C16.7269 16.1899 16.7274 16.1886 16.7293 16.1867C16.7311 16.1849 16.7333 16.1835 16.7355 16.1826C16.7372 16.1819 16.74 16.181 16.7452 16.181V14.581C15.8595 14.581 15.127 15.2936 15.127 16.1905H16.727ZM16.7452 16.181C16.7504 16.181 16.7531 16.1819 16.7548 16.1826C16.757 16.1835 16.7592 16.1849 16.761 16.1867C16.7629 16.1886 16.7634 16.1899 16.7634 16.1898C16.7632 16.1893 16.7633 16.1889 16.7633 16.1905H18.3633C18.3633 15.2936 17.6308 14.581 16.7452 14.581V16.181ZM1.19971 1.8H4.47243V0.2H1.19971V1.8ZM3.69159 1.17401L5.88432 11.0135L7.44601 10.6655L5.25328 0.825989L3.69159 1.17401ZM5.88081 10.997C5.993 11.5558 6.29994 12.0561 6.74565 12.4111L7.74247 11.1595C7.58987 11.038 7.48696 10.8686 7.44951 10.6821L5.88081 10.997ZM6.74565 12.4111C7.19117 12.7659 7.74732 12.9535 8.31669 12.9427L8.28636 11.343C8.08778 11.3468 7.89527 11.2812 7.74247 11.1595L6.74565 12.4111ZM8.30153 12.9429H16.2543V11.3429H8.30153V12.9429ZM16.2391 12.9427C16.8085 12.9535 17.3646 12.7659 17.8101 12.4111L16.8133 11.1595C16.6605 11.2812 16.468 11.3468 16.2694 11.343L16.2391 12.9427ZM17.8101 12.4111C18.2558 12.0561 18.5628 11.5558 18.675 10.997L17.1063 10.6821C17.0688 10.8686 16.9659 11.038 16.8133 11.1595L17.8101 12.4111ZM18.6709 11.0159L19.98 5.22399L18.4194 4.87125L17.1103 10.6632L18.6709 11.0159ZM19.1997 4.24762H5.29062V5.84762H19.1997V4.24762Z" fill="#101828"/>
</svg>
